PathFileType	4	(X/Y/Z)	stereocamera_test1.trc
DataRate	CameraRate	NumFrames	NumMarkers	Units	OrigDataRate	OrigDataStartFrame	OrigNumFrames
28.773259820813234	28.773259820813234	17	15	mm	28.773259820813234	210	335
Frame#	Time	JOINT_NECK			JOINT_RIGHT_CLAVICLE			JOINT_LEFT_CLAVICLE			JOINT_RIGHT_SHOULDER			JOINT_LEFT_SHOULDER			JOINT_RIGHT_ELBOW			JOINT_LEFT_ELBOW			JOINT_LEFT_WRIST			JOINT_RIGHT_WRIST			JOINT_SPINE_3			JOINT_SPINE_2			JOINT_SPINE_1			JOINT_PELVIS			JOINT_RIGHT_HIP			JOINT_LEFT_HIP
		X1	Y1	Z1	X2	Y2	Z2	X3	Y3	Z3	X4	Y4	Z4	X5	Y5	Z5	X6	Y6	Z6	X7	Y7	Z7	X8	Y8	Z8	X9	Y9	Z9	X10	Y10	Z10	X11	Y11	Z11	X12	Y12	Z12	X13	Y13	Z13	X14	Y14	Z14	X15	Y15	Z15

210	1749651078.205000	145.194990	-13.557926	907.906950	76.017900	-19.032970	956.997750	216.656790	-8.423671	897.204700	-2.479189	-23.845166	1000.816500	178.074840	-3.267899	551.179230	-150.711160	-219.417540	920.623300	349.416880	-203.652560	663.774600	265.895630	-6.264955	552.646040	-158.389610	-62.195390	862.991500	141.383250	-96.929550	887.289050	135.503780	-180.270600	867.270600	131.429360	-255.298640	841.346000	130.197780	-327.302700	821.660460	35.532285	-346.149680	880.631600	nan	nan	nan
211	1749651078.238000	146.516190	-13.344735	906.540200	79.296160	-19.657165	954.096900	217.659800	-6.721541	898.448800	1.951361	-25.693520	1000.704400	163.315400	-1.993485	508.680940	-148.944450	-223.771560	934.231040	355.821460	-206.582770	666.377540	259.167700	-15.553519	545.389060	-157.528790	-65.051790	860.463500	141.277780	-99.604320	887.626500	133.679880	-183.645280	867.713630	127.421290	-258.677930	843.981440	124.460250	-330.647470	819.218000	34.692764	-352.055550	875.353000	197.333770	-332.491520	807.969200
212	1749651078.271000	144.489560	-12.939215	904.249900	78.680810	-19.941181	954.829160	215.688800	-7.825837	899.723300	0.659623	-24.641499	1002.986400	165.496420	-2.174370	523.257430	-148.569640	-219.605900	930.841200	360.485580	-204.644600	660.599000	251.778220	-28.237276	548.906560	-153.902490	-75.483955	861.070800	141.113880	-98.961740	888.112070	137.319490	-183.128370	866.287700	131.408830	-257.109200	839.905440	127.829800	-330.443260	816.901100	40.020958	-353.415800	870.348500	213.134080	-328.043900	813.489440
213	1749651078.305000	145.051030	-13.526708	900.160700	77.959955	-19.941450	955.670830	216.446850	-8.484721	898.526200	1.454854	-23.321107	1002.456100	156.846450	-3.438607	492.758130	-147.193250	-214.387920	931.815000	370.175300	-201.287720	658.405960	239.907260	-45.528445	553.391460	-149.676350	-90.202280	857.438560	143.312830	-98.187715	887.093000	139.922410	-182.469640	865.479000	136.555930	-255.304280	835.553650	132.851880	-330.001350	815.409900	42.915090	-352.749140	870.167800	225.677340	-327.507640	817.227070
214	1749651078.338000	145.659180	-13.945147	898.081060	77.344190	-19.772068	956.310330	216.550500	-10.172188	887.594800	-0.939616	-21.975502	1003.750800	214.543980	-5.689926	689.961250	-149.917420	-215.728760	951.316240	373.753000	-194.118070	653.090800	234.648930	-76.552020	567.683600	-145.698040	-114.253640	856.930500	144.637610	-99.870980	885.793000	143.629100	-181.404860	862.599500	142.053990	-255.869480	831.799450	138.391330	-329.185200	813.709900	50.468024	-352.282520	864.532650	232.956360	-327.059200	819.516900
215	1749651078.372000	143.441560	-10.512129	894.835350	74.319190	-17.118037	959.884500	215.235040	-5.155057	895.025200	-3.210388	-20.475581	1004.492500	253.411530	-1.866311	815.563100	-147.330910	-217.358260	970.752400	391.490300	-192.634600	679.619850	217.835130	-106.528720	580.145300	-137.504800	-133.178760	832.529250	143.186230	-96.511260	887.844900	143.828750	-178.898250	864.151700	140.922410	-252.404200	832.301900	137.739050	-325.556100	816.943400	51.437438	-346.992020	866.111900	232.376170	-326.212170	820.185700
216	1749651078.439000	149.466680	-8.594900	899.533870	78.546554	-14.545798	956.131340	219.962120	-3.505305	897.475400	3.058231	-18.639132	998.559900	279.959200	-0.845298	865.972000	-169.040170	-207.115020	1012.360600	414.413930	-191.228720	712.889250	215.587440	-173.476110	613.682000	-117.918500	-174.209490	832.839800	147.173850	-105.082676	880.734560	143.539770	-194.460990	845.702900	141.003860	-278.577500	823.612100	137.963200	-360.492770	807.009940	nan	nan	nan	nan	nan	nan
217	1749651078.472000	152.879420	-8.548901	903.953250	83.671530	-13.883978	950.865800	224.805820	-3.428862	896.843400	7.016350	-17.239615	1000.235000	288.182900	-1.858666	872.940200	-167.803820	-194.440950	1021.314000	423.163060	-194.160130	725.847600	217.564600	-205.438260	636.344800	-122.475200	-203.769070	849.486900	148.925100	-106.554750	879.228600	137.826930	-191.435520	801.767230	142.825070	-290.218650	837.708100	140.008240	-376.626730	821.756540	49.076780	-343.879160	868.852730	nan	nan	nan
218	1749651078.506000	155.137180	-8.780926	906.247500	86.351950	-13.509765	948.516370	226.957300	-5.941570	894.898400	9.662487	-15.598774	998.151600	291.818650	-3.520310	872.223440	-162.017360	-179.059620	991.421160	428.823260	-197.718800	734.405700	215.622680	-228.905110	651.668000	-121.755790	-221.652970	847.902830	149.780470	-106.991640	879.186500	141.559320	-193.949400	830.796240	137.651500	-285.011900	815.383730	139.278040	-379.667500	832.672360	46.654270	-331.587170	868.594050	nan	nan	nan
219	1749651078.539000	156.400700	-10.045111	908.086240	87.601595	-13.498291	947.670760	227.882330	-7.613972	893.862250	10.204226	-15.945703	998.899800	293.028620	-5.496398	867.876200	-159.063970	-172.235320	975.392000	430.043900	-199.874250	738.853800	217.454970	-240.798950	663.225770	-116.678044	-232.915160	842.101340	150.106030	-107.031316	879.693270	141.025600	-196.888860	846.906070	126.644940	-270.674050	767.359550	132.668330	-373.900060	814.419900	41.352760	-340.785620	863.884800	nan	nan	nan
220	1749651078.573000	157.504290	-11.934415	909.503900	87.987960	-13.599515	947.556000	228.061620	-8.591279	893.274200	10.747580	-17.580405	996.956000	293.016300	-7.531553	863.756500	-157.962340	-175.032470	983.052600	429.566000	-203.347890	739.794400	221.240600	-243.440390	671.693270	-112.008530	-236.604680	837.230560	150.159140	-106.837350	880.515200	142.883880	-197.804120	853.120500	116.434650	-246.919040	705.429550	132.314610	-371.722340	819.848360	43.922998	-333.489750	860.080840	nan	nan	nan
221	1749651078.606000	157.654430	-12.651786	905.310030	87.860584	-13.640955	947.683630	227.863130	-8.960634	893.174770	11.508111	-18.300727	994.996800	292.218030	-8.250535	860.398200	-156.760650	-183.735360	996.821600	428.274150	-206.219030	740.066950	226.406020	-237.152980	675.667460	-109.472500	-233.137150	833.937000	149.859500	-108.709425	879.875900	139.524600	-194.098430	825.309340	128.842580	-271.265270	787.114740	130.474720	-367.670060	804.453250	43.788303	-335.412620	868.786600	nan	nan	nan
222	1749651078.640000	157.564790	-12.510747	902.338700	87.538130	-13.722867	948.068400	227.538360	-9.057283	893.335100	11.634495	-19.708633	993.658400	291.809980	-6.756082	859.545900	-154.357050	-191.987440	1009.190100	427.668040	-207.648130	740.358800	232.136090	-223.087220	669.088800	-107.132000	-230.410080	845.955130	151.839100	-109.646660	877.699430	148.120580	-197.910800	844.892860	141.777340	-277.709200	806.201760	137.744000	-362.306400	789.363800	48.737260	-337.096400	870.174400	nan	nan	nan
223	1749651078.673000	155.425340	-13.262644	901.026370	84.566420	-16.527295	949.903100	227.213560	-9.141296	893.576860	8.974317	-21.671101	991.877000	290.319530	-5.842328	858.456400	-156.888340	-207.462500	1014.080500	423.365060	-209.204910	736.382400	239.143800	-205.632640	655.608060	-100.102260	-219.649460	855.793540	152.818860	-114.736560	874.687400	150.945710	-207.680570	841.573000	148.656280	-294.468820	814.050140	148.633300	-382.256840	800.500500	nan	nan	nan	nan	nan	nan
224	1749651078.706000	154.458060	-12.657985	900.258600	85.158730	-15.764654	949.780200	226.962500	-9.062842	893.859570	7.859556	-21.966875	990.791000	288.955700	-4.656434	858.672560	-177.941070	-234.107640	1029.134900	419.124840	-210.626400	728.896260	251.498600	-185.670290	638.712700	-102.888190	-202.028560	826.842250	153.874840	-106.620860	877.007400	151.572210	-195.343990	850.005800	148.292270	-277.322050	820.986800	149.892400	-358.289900	805.669000	51.357284	-350.635900	865.204750	241.054400	-329.779740	812.302100
225	1749651078.740000	153.547940	-8.984402	901.224100	85.750240	-12.621954	950.767760	224.760030	-6.604523	896.728100	7.929676	-18.016562	993.184030	286.586670	-1.285776	859.495940	-164.778900	-242.186040	1002.121900	407.542820	-208.178400	715.626400	258.825960	-164.124760	616.228800	-107.528550	-178.069230	780.732700	152.211920	-98.578290	881.017000	149.512600	-184.393670	858.381450	142.878470	-260.577740	827.137500	143.186940	-338.807400	813.726250	52.020203	-351.104050	861.015860	218.593720	-313.727530	803.997500
226	1749651078.773000	154.559460	-9.614915	899.566700	86.134810	-13.099357	950.433200	227.676900	-7.397175	894.689500	7.142540	-18.408254	993.895100	280.718860	-1.779675	830.964570	-150.780260	-251.759680	995.592240	392.516580	-205.844720	690.368300	264.734330	-138.466630	605.516430	-118.678354	-164.867670	762.004600	153.261650	-95.788890	881.754400	147.689150	-179.727440	861.284140	141.517670	-254.991050	830.739900	140.110840	-330.349620	813.627900	48.927580	-352.133800	857.656360	222.023070	-323.246300	807.714000
